HIERARCHY
ROOT hip
{
  OFFSET 0 0 0
  CHANNELS 6 Xposition Yposition Zposition Zrotation Yrotation Xrotation
  JOINT abdomen
  {
    OFFSET 0 20.6881 -0.73152
    CHANNELS 3 Zrotation Xrotation Yrotation
    JOINT chest
    {
      OFFSET 0 11.7043 -0.48768
      CHANNELS 3 Zrotation Xrotation Yrotation
      JOINT neck
      {
        OFFSET 0 22.1894 -2.19456
        CHANNELS 3 Zrotation Xrotation Yrotation
        JOINT head
        {
          OFFSET -0.24384 7.07133 1.2192
          CHANNELS 3 Zrotation Xrotation Yrotation
          JOINT leftEye
          {
            OFFSET 4.14528 8.04674 8.04672
            CHANNELS 3 Zrotation Xrotation Yrotation
            End Site
            {
              OFFSET 1 0 0
            }
          }
          JOINT rightEye
          {
            OFFSET -3.6576 8.04674 8.04672
            CHANNELS 3 Zrotation Xrotation Yrotation
            End Site
            {
              OFFSET 1 0 0
            }
          }
        }
      }
      JOINT rCollar
      {
        OFFSET -2.68224 19.2634 -4.8768
        CHANNELS 3 Zrotation Xrotation Yrotation
        JOINT rShldr
        {
          OFFSET -8.77824 -1.95073 1.46304
          CHANNELS 3 Zrotation Xrotation Yrotation
          JOINT rForeArm
          {
            OFFSET -28.1742 -1.7115 0.48768
            CHANNELS 3 Zrotation Xrotation Yrotation
            JOINT rHand
            {
              OFFSET -22.5879 0.773209 7.07136
              CHANNELS 3 Zrotation Xrotation Yrotation
              JOINT rThumb1
              {
                OFFSET -1.2192 -0.487915 3.41376
                CHANNELS 3 Zrotation Xrotation Yrotation
                JOINT rThumb2
                {
                  OFFSET -3.37035 -0.52449 3.41376
                  CHANNELS 3 Zrotation Xrotation Yrotation
                  End Site
                  {
                    OFFSET -1.78271 -1.18214 1.43049
                  }
                }
              }
              JOINT rIndex1
              {
                OFFSET -7.75947 0.938293 5.60832
                CHANNELS 3 Zrotation Xrotation Yrotation
                JOINT rIndex2
                {
                  OFFSET -2.54057 -0.884171 1.56538
                  CHANNELS 3 Zrotation Xrotation Yrotation
                  End Site
                  {
                    OFFSET -1.62519 -0.234802 1.16502
                  }
                }
              }
              JOINT rMid1
              {
                OFFSET -8.24714 1.18213 3.41376
                CHANNELS 3 Zrotation Xrotation Yrotation
                JOINT rMid2
                {
                  OFFSET -3.10165 -0.590103 1.0647
                  CHANNELS 3 Zrotation Xrotation Yrotation
                  End Site
                  {
                    OFFSET -2.48547 -0.328903 0.83742
                  }
                }
              }
              JOINT rRing1
              {
                OFFSET -8.82822 0.546677 1.51678
                CHANNELS 3 Zrotation Xrotation Yrotation
                JOINT rRing2
                {
                  OFFSET -2.60934 -0.819778 -0.0198488
                  CHANNELS 3 Zrotation Xrotation Yrotation
                  End Site
                  {
                    OFFSET -2.33842 -0.294052 0.168128
                  }
                }
              }
              JOINT rPinky1
              {
                OFFSET -8.27202 -0.0477905 -0.4584
                CHANNELS 3 Zrotation Xrotation Yrotation
                JOINT rPinky2
                {
                  OFFSET -1.82734 -0.647385 -0.700984
                  CHANNELS 3 Zrotation Xrotation Yrotation
                  End Site
                  {
                    OFFSET -1.69225 -0.51767 -0.607171
                  }
                }
              }
            }
          }
        }
      }
      JOINT lCollar
      {
        OFFSET 2.68224 19.2634 -4.8768
        CHANNELS 3 Zrotation Xrotation Yrotation
        JOINT lShldr
        {
          OFFSET 8.77824 -1.95073 1.46304
          CHANNELS 3 Zrotation Xrotation Yrotation
          JOINT lForeArm
          {
            OFFSET 28.1742 -1.7115 0.48768
            CHANNELS 3 Zrotation Xrotation Yrotation
            JOINT lHand
            {
              OFFSET 22.5879 0.773209 7.07136
              CHANNELS 3 Zrotation Xrotation Yrotation
              JOINT lThumb1
              {
                OFFSET 1.2192 -0.487915 3.41376
                CHANNELS 3 Zrotation Xrotation Yrotation
                JOINT lThumb2
                {
                  OFFSET 3.37035 -0.52449 3.41376
                  CHANNELS 3 Zrotation Xrotation Yrotation
                  End Site
                  {
                    OFFSET 1.78271 -1.18214 1.43049
                  }
                }
              }
              JOINT lIndex1
              {
                OFFSET 7.75947 0.938293 5.60832
                CHANNELS 3 Zrotation Xrotation Yrotation
                JOINT lIndex2
                {
                  OFFSET 2.54057 -0.884171 1.56538
                  CHANNELS 3 Zrotation Xrotation Yrotation
                  End Site
                  {
                    OFFSET 1.62519 -0.234802 1.16502
                  }
                }
              }
              JOINT lMid1
              {
                OFFSET 8.24714 1.18213 3.41376
                CHANNELS 3 Zrotation Xrotation Yrotation
                JOINT lMid2
                {
                  OFFSET 3.10165 -0.590103 1.0647
                  CHANNELS 3 Zrotation Xrotation Yrotation
                  End Site
                  {
                    OFFSET 2.48547 -0.328903 0.83742
                  }
                }
              }
              JOINT lRing1
              {
                OFFSET 8.82822 0.546677 1.51678
                CHANNELS 3 Zrotation Xrotation Yrotation
                JOINT lRing2
                {
                  OFFSET 2.60934 -0.819778 -0.0198488
                  CHANNELS 3 Zrotation Xrotation Yrotation
                  End Site
                  {
                    OFFSET 2.33842 -0.294052 0.168128
                  }
                }
              }
              JOINT lPinky1
              {
                OFFSET 8.27202 -0.0477905 -0.4584
                CHANNELS 3 Zrotation Xrotation Yrotation
                JOINT lPinky2
                {
                  OFFSET 1.82734 -0.647385 -0.700984
                  CHANNELS 3 Zrotation Xrotation Yrotation
                  End Site
                  {
                    OFFSET 1.69225 -0.51767 -0.607171
                  }
                }
              }
            }
          }
        }
      }
    }
  }
  JOINT rButtock
  {
    OFFSET -8.77824 4.35084 1.2192
    CHANNELS 3 Zrotation Xrotation Yrotation
    JOINT rThigh
    {
      OFFSET 0 -1.70687 -2.19456
      CHANNELS 3 Zrotation Xrotation Yrotation
      JOINT rShin
      {
        OFFSET 0 -36.8199 0.73152
        CHANNELS 3 Zrotation Xrotation Yrotation
        JOINT rFoot
        {
          OFFSET 0.73152 -45.1104 -5.12064
          CHANNELS 3 Zrotation Xrotation Yrotation
          End Site
          {
            OFFSET -1.1221 -3.69964 12.103
          }
        }
      }
    }
  }
  JOINT lButtock
  {
    OFFSET 8.77824 4.35084 1.2192
    CHANNELS 3 Zrotation Xrotation Yrotation
    JOINT lThigh
    {
      OFFSET 0 -1.70687 -2.19456
      CHANNELS 3 Zrotation Xrotation Yrotation
      JOINT lShin
      {
        OFFSET 0 -36.8199 0.73152
        CHANNELS 3 Zrotation Xrotation Yrotation
        JOINT lFoot
        {
          OFFSET -0.73152 -45.1104 -5.12064
          CHANNELS 3 Zrotation Xrotation Yrotation
          End Site
          {
            OFFSET 1.1221 -3.69964 12.103
          }
        }
      }
    }
  }
}
MOTION
Frames:	6
Frame Time:	0.00833333
29.5631 84.9875 0.496301 164.402 101.215 185.251 -4.48996 -6.12873 5.15888 1.92073 1.86217 1.55165 2.42248 11.0174 6.38706 -3.90815 -0.150237 13.2493 -0.0 0.0 0.0 -0.0 0.0 0.0 -1.27106e-13 4.44589e-12 1.90985e-13 85.9786 19.6737 -15.1221 -24.654 -20.3729 51.7524 -0.119341 9.7928 1.39003 1.52014e-09 6.94215e-10 -1.93674e-10 2.62546e-09 1.20073e-09 -3.38705e-10 1.52015e-09 6.94211e-10 -1.93677e-10 7.73091 5.47488 0.417314 1.52014e-09 6.9421e-10 -1.93674e-10 2.90554 0.965183 0.102902 1.52015e-09 6.94212e-10 -1.93675e-10 10.2786 0.731801 0.0259123 1.52013e-09 6.94214e-10 -1.93665e-10 2.22167 -0.733487 -0.20892 -1.27219e-13 4.44589e-12 1.90746e-13 -77.6993 7.28033 14.0216 11.3089 -4.97584 -20.2805 0.863121 25.4456 -3.8329 1.70972e-09 -2.30115e-10 3.42157e-10 2.96476e-09 -4.18757e-10 5.57142e-10 1.70971e-09 -2.30111e-10 3.42165e-10 -7.73091 5.47488 -0.417314 1.70971e-09 -2.30113e-10 3.42162e-10 -2.90554 0.965183 -0.102902 1.70971e-09 -2.30113e-10 3.42162e-10 -10.2786 0.731801 -0.0259123 1.70972e-09 -2.30114e-10 3.42155e-10 -2.22167 -0.733487 0.20892 -2.03217e-16 0.0 -3.88251e-19 1.29707 -33.3342 9.46791 -0.525074 51.7547 1.51935 -0.408552 -13.4199 12.8947 2.03217e-16 0.0 3.88251e-19 2.2932 -36.1147 -12.6071 0.0624817 26.3405 -1.22867 1.97713 -9.99492 22.3316
29.4764 84.9419 0.472284 164.316 101.292 185.202 -4.67991 -5.93096 5.32934 1.80704 1.78325 1.59846 2.50687 10.9184 6.33544 -3.98208 -0.0492463 13.1464 -0.0 0.0 0.0 -0.0 0.0 0.0 -9.07686e-14 3.07274e-12 1.27983e-13 86.2439 19.6922 -15.1415 -24.4387 -19.9405 51.026 -0.118145 9.74939 1.38372 5.89965e-10 -1.48652e-10 3.89299e-10 1.01995e-09 -2.58654e-10 6.74729e-10 5.89975e-10 -1.48655e-10 3.893e-10 7.73091 5.47488 0.417314 5.8997e-10 -1.48657e-10 3.89299e-10 2.90554 0.965183 0.102902 5.89977e-10 -1.48655e-10 3.89299e-10 10.2786 0.731801 0.0259123 5.89962e-10 -1.48655e-10 3.89308e-10 2.22167 -0.733487 -0.20892 -9.08035e-14 3.07274e-12 1.27793e-13 -77.6344 5.88519 14.3936 11.0131 -4.78154 -19.7136 0.955019 26.6396 -4.0415 1.07991e-09 7.84985e-11 7.7778e-10 1.8835e-09 1.1735e-10 1.32256e-09 1.0799e-09 7.85059e-11 7.77783e-10 -7.73091 5.47488 -0.417314 1.07991e-09 7.85031e-11 7.77782e-10 -2.90554 0.965183 -0.102902 1.0799e-09 7.85045e-11 7.77785e-10 -10.2786 0.731801 -0.0259123 1.07991e-09 7.85026e-11 7.77777e-10 -2.22167 -0.733487 0.20892 -2.03217e-16 0.0 -3.88251e-19 1.58723 -33.6386 9.45265 -0.525548 51.481 1.47237 -0.39274 -13.4008 12.4461 2.03217e-16 0.0 3.88251e-19 2.27749 -36.2339 -12.4897 0.065121 26.5231 -1.20962 1.95666 -10.0186 22.3512
29.351 84.8933 0.43501 164.362 101.349 185.207 -4.85947 -5.75503 5.47536 1.70268 1.69287 1.63842 2.53127 10.8505 6.28032 -3.95602 0.04374 13.0439 -0.0 0.0 0.0 -0.0 0.0 0.0 -6.12341e-14 1.76685e-12 6.52511e-14 86.4836 19.7356 -15.199 -24.2224 -19.5185 50.3209 -0.118782 9.78062 1.38822 2.22321e-11 -5.87448e-10 6.96844e-10 3.99605e-11 -1.01783e-09 1.20887e-09 2.22408e-11 -5.8745e-10 6.96847e-10 7.73091 5.47488 0.417314 2.22369e-11 -5.87453e-10 6.96844e-10 2.90554 0.965183 0.102902 2.22452e-11 -5.87451e-10 6.96845e-10 10.2786 0.731801 0.0259123 2.22287e-11 -5.87452e-10 6.96853e-10 2.22167 -0.733487 -0.20892 -6.12213e-14 1.76685e-12 6.5102e-14 -77.6027 4.66424 14.805 10.7697 -4.62238 -19.2529 1.03636 27.6119 -4.21562 6.16143e-10 2.20708e-10 9.54917e-10 1.08404e-09 3.66702e-10 1.63791e-09 6.16138e-10 2.20719e-10 9.5492e-10 -7.73091 5.47488 -0.417314 6.16145e-10 2.20715e-10 9.54917e-10 -2.90554 0.965183 -0.102902 6.16137e-10 2.20718e-10 9.54924e-10 -10.2786 0.731801 -0.0259123 6.16149e-10 2.20715e-10 9.54914e-10 -2.22167 -0.733487 0.20892 -2.03217e-16 0.0 -3.88251e-19 1.8757 -33.9495 9.39822 -0.526313 51.2002 1.42391 -0.377158 -13.4082 11.9548 2.03217e-16 0.0 3.88251e-19 2.24529 -36.3833 -12.4028 0.0677282 26.7277 -1.19065 1.9318 -10.0342 22.378
29.2143 84.8291 0.404654 164.137 101.386 184.965 -5.02584 -5.59561 5.5887 1.60883 1.56303 1.66905 2.45028 10.8216 6.2179 -3.74799 0.132721 12.9399 -0.0 0.0 0.0 -0.0 0.0 0.0 -3.81226e-14 3.53934e-13 -7.80929e-15 86.704 19.8139 -15.343 -24.0104 -19.116 49.6499 -0.122309 9.92648 1.40933 -3.29247e-12 -3.70181e-10 5.53305e-10 -4.50259e-12 -6.40132e-10 9.58117e-10 -3.286e-12 -3.70182e-10 5.53308e-10 7.73091 5.47488 0.417314 -3.28935e-12 -3.70184e-10 5.53305e-10 2.90554 0.965183 0.102902 -3.28134e-12 -3.70182e-10 5.53308e-10 10.2786 0.731801 0.0259123 -3.29643e-12 -3.70184e-10 5.53317e-10 2.22167 -0.733487 -0.20892 -3.81049e-14 3.53938e-13 -7.92654e-15 -77.6283 3.6671 15.3046 10.5999 -4.51186 -18.9348 1.09513 28.2819 -4.33755 3.75441e-10 7.27259e-11 6.73173e-10 6.60425e-10 1.16855e-10 1.15583e-09 3.75436e-10 7.27384e-11 6.73183e-10 -7.73091 5.47488 -0.417314 3.75443e-10 7.27344e-11 6.73172e-10 -2.90554 0.965183 -0.102902 3.75432e-10 7.27387e-11 6.73183e-10 -10.2786 0.731801 -0.0259123 3.75447e-10 7.27333e-11 6.73168e-10 -2.22167 -0.733487 0.20892 -2.03217e-16 0.0 -3.88251e-19 2.18584 -34.3001 9.30508 -0.527202 50.8916 1.37068 -0.362162 -13.4446 11.393 2.03217e-16 0.0 3.88251e-19 2.19047 -36.5653 -12.3606 0.0705228 26.9648 -1.1702 1.90148 -10.0412 22.4201
29.0642 84.7622 0.368027 163.971 101.388 184.82 -5.18832 -5.4382 5.67896 1.51914 1.4008 1.69316 2.298 10.8109 6.14551 -3.41328 0.230604 12.8257 -0.0 0.0 0.0 -0.0 0.0 0.0 -1.54576e-14 -1.30201e-12 -9.63671e-14 86.9069 19.9224 -15.5406 -23.8046 -18.7355 49.0063 -0.127367 10.1284 1.4386 1.95605e-10 1.44466e-10 2.09472e-10 3.38417e-10 2.53504e-10 3.58238e-10 1.95608e-10 1.44467e-10 2.09473e-10 7.73091 5.47488 0.417314 1.95605e-10 1.44466e-10 2.09474e-10 2.90554 0.965183 0.102902 1.95612e-10 1.44468e-10 2.09477e-10 10.2786 0.731801 0.0259123 1.956e-10 1.44466e-10 2.09487e-10 2.22167 -0.733487 -0.20892 -1.54576e-14 -1.302e-12 -9.6454e-14 -77.6853 2.83688 15.8535 10.4931 -4.44444 -18.7327 1.13488 28.739 -4.42097 1.95971e-10 -2.19185e-10 1.58892e-10 3.37168e-10 -3.79821e-10 2.70559e-10 1.95966e-10 -2.1917e-10 1.58914e-10 -7.73091 5.47488 -0.417314 1.95973e-10 -2.19175e-10 1.58892e-10 -2.90554 0.965183 -0.102902 1.95959e-10 -2.19168e-10 1.58908e-10 -10.2786 0.731801 -0.0259123 1.95977e-10 -2.19176e-10 1.58886e-10 -2.22167 -0.733487 0.20892 -2.03217e-16 0.0 -3.88251e-19 2.50558 -34.6729 9.17141 -0.528569 50.5583 1.31373 -0.348955 -13.5033 10.7749 2.03217e-16 0.0 3.88251e-19 2.1095 -36.7746 -12.3562 0.0733781 27.2292 -1.14841 1.86659 -10.0429 22.4643
28.8991 84.6987 0.334185 163.776 101.354 184.69 -5.34493 -5.30562 5.75756 1.43566 1.26389 1.71424 2.15129 10.8159 6.07363 -3.09497 0.318686 12.7127 -0.0 0.0 0.0 -0.0 0.0 0.0 1.42257e-15 -2.70689e-12 -1.72697e-13 87.0777 20.0416 -15.7082 -23.5964 -18.3609 48.3623 -0.13288 10.3403 1.46937 4.52786e-10 6.58521e-10 -1.27522e-10 7.82307e-10 1.14626e-09 -2.30004e-10 4.52785e-10 6.58524e-10 -1.27523e-10 7.73091 5.47488 0.417314 4.52783e-10 6.58523e-10 -1.27519e-10 2.90554 0.965183 0.102902 4.52789e-10 6.58525e-10 -1.27514e-10 10.2786 0.731801 0.0259123 4.5278e-10 6.58524e-10 -1.27504e-10 2.22167 -0.733487 -0.20892 1.39653e-15 -2.70687e-12 -1.72759e-13 -77.7461 2.1029 16.3638 10.4152 -4.39683 -18.5837 1.16567 29.099 -4.48665 7.08207e-11 -4.86197e-10 -3.06793e-10 1.09317e-10 -8.34607e-10 -5.31968e-10 7.08156e-11 -4.86181e-10 -3.06761e-10 -7.73091 5.47488 -0.417314 7.08231e-11 -4.86187e-10 -3.06793e-10 -2.90554 0.965183 -0.102902 7.08056e-11 -4.86178e-10 -3.06773e-10 -10.2786 0.731801 -0.0259123 7.08262e-11 -4.86189e-10 -3.06801e-10 -2.22167 -0.733487 0.20892 -2.03217e-16 0.0 -3.88251e-19 2.78813 -35.0066 8.99568 -0.530788 50.2448 1.25983 -0.338763 -13.5833 10.1519 2.03217e-16 0.0 3.88251e-19 2.01806 -37.0099 -12.364 0.0757979 27.5009 -1.12869 1.82882 -10.038 22.5027
